<svg width="97" height="97" viewBox="0 0 97 97" fill="none" xmlns="http://www.w3.org/2000/svg">
<rect x="0.833008" y="1" width="95" height="95" rx="47.5" fill="#EF4444"/>
<rect x="0.833008" y="1" width="95" height="95" rx="47.5" stroke="#EF4444"/>
<path d="M62.333 28.5H34.333C33.8026 28.5 33.2939 28.2893 32.9188 27.9142C32.5437 27.5391 32.333 27.0304 32.333 26.5C32.333 25.9696 32.5437 25.4609 32.9188 25.0858C33.2939 24.7107 33.8026 24.5 34.333 24.5H62.333C62.8634 24.5 63.3722 24.7107 63.7472 25.0858C64.1223 25.4609 64.333 25.9696 64.333 26.5C64.333 27.0304 64.1223 27.5391 63.7472 27.9142C63.3722 28.2893 62.8634 28.5 62.333 28.5Z" fill="white"/>
<path d="M66.333 34.5H30.333C29.8026 34.5 29.2939 34.2893 28.9188 33.9142C28.5437 33.5391 28.333 33.0304 28.333 32.5C28.333 31.9696 28.5437 31.4609 28.9188 31.0858C29.2939 30.7107 29.8026 30.5 30.333 30.5H66.333C66.8634 30.5 67.3722 30.7107 67.7472 31.0858C68.1223 31.4609 68.333 31.9696 68.333 32.5C68.333 33.0304 68.1223 33.5391 67.7472 33.9142C67.3722 34.2893 66.8634 34.5 66.333 34.5Z" fill="white"/>
<path d="M68.7243 72.5H27.9418C26.4547 72.4983 25.0291 71.9069 23.9776 70.8554C22.9261 69.8039 22.3347 68.3783 22.333 66.8913V42.1087C22.3347 40.6217 22.9261 39.1961 23.9776 38.1446C25.0291 37.0931 26.4547 36.5017 27.9418 36.5H68.7243C70.2113 36.5017 71.6369 37.0931 72.6884 38.1446C73.7399 39.1961 74.3314 40.6217 74.333 42.1087V66.8913C74.3314 68.3783 73.7399 69.8039 72.6884 70.8554C71.6369 71.9069 70.2113 72.4983 68.7243 72.5Z" fill="white"/>
</svg>
