<svg width="96" height="97" viewBox="0 0 96 97" fill="none" xmlns="http://www.w3.org/2000/svg">
<rect x="0.5" y="1" width="95" height="95" rx="47.5" fill="#0A5594"/>
<rect x="0.5" y="1" width="95" height="95" rx="47.5" stroke="#0A5594"/>
<path d="M62 28.5H34C33.4696 28.5 32.9609 28.2893 32.5858 27.9142C32.2107 27.5391 32 27.0304 32 26.5C32 25.9696 32.2107 25.4609 32.5858 25.0858C32.9609 24.7107 33.4696 24.5 34 24.5H62C62.5304 24.5 63.0391 24.7107 63.4142 25.0858C63.7893 25.4609 64 25.9696 64 26.5C64 27.0304 63.7893 27.5391 63.4142 27.9142C63.0391 28.2893 62.5304 28.5 62 28.5Z" fill="white"/>
<path d="M66 34.5H30C29.4696 34.5 28.9609 34.2893 28.5858 33.9142C28.2107 33.5391 28 33.0304 28 32.5C28 31.9696 28.2107 31.4609 28.5858 31.0858C28.9609 30.7107 29.4696 30.5 30 30.5H66C66.5304 30.5 67.0391 30.7107 67.4142 31.0858C67.7893 31.4609 68 31.9696 68 32.5C68 33.0304 67.7893 33.5391 67.4142 33.9142C67.0391 34.2893 66.5304 34.5 66 34.5Z" fill="white"/>
<path d="M68.3913 72.5H27.6088C26.1217 72.4983 24.6961 71.9069 23.6446 70.8554C22.5931 69.8039 22.0017 68.3783 22 66.8913V42.1087C22.0017 40.6217 22.5931 39.1961 23.6446 38.1446C24.6961 37.0931 26.1217 36.5017 27.6088 36.5H68.3913C69.8783 36.5017 71.3039 37.0931 72.3554 38.1446C73.4069 39.1961 73.9983 40.6217 74 42.1087V66.8913C73.9983 68.3783 73.4069 69.8039 72.3554 70.8554C71.3039 71.9069 69.8783 72.4983 68.3913 72.5Z" fill="white"/>
</svg>
