<svg width="20" height="20" viewBox="0 0 20 20" fill="none" xmlns="http://www.w3.org/2000/svg">
<path d="M19.9935 16.6019C20.0693 16.397 11.364 9.82377 11.364 9.82377C10.2741 9.01951 9.70094 9.00685 8.6232 9.82377C8.6232 9.82377 -0.0694531 16.3917 0.00371094 16.5937L0.00195312 16.5952C0.00285156 16.597 0.00429687 16.5982 0.00550781 16.5998C0.0792286 16.8007 0.186463 16.9877 0.322656 17.1528C0.380195 17.2226 0.449531 17.281 0.516211 17.3417L0.512969 17.3442C0.518281 17.349 0.525352 17.3512 0.530664 17.3559C0.813281 17.608 1.16969 17.7713 1.56562 17.8179C1.57184 17.8186 1.57684 17.8219 1.58305 17.8226H1.60695C1.66715 17.8283 1.72438 17.8428 1.78602 17.8428H18.2204C19.0297 17.8428 19.7153 17.3339 19.9877 16.6205C19.9909 16.6152 19.9959 16.6113 19.9989 16.6059L19.9935 16.6019Z" fill="#96A9B2"/>
<path d="M10.0055 9.06916L0.0478516 16.5374V5.9574C0.0478516 4.92615 0.883672 4.09033 1.91492 4.09033H18.0962C19.1274 4.09033 19.9632 4.92615 19.9632 5.9574V16.5374L10.0055 9.06916Z" fill="#B9C5C6"/>
<path d="M0.164062 5.30828L8.66582 11.986C9.73887 12.7778 10.3032 12.7903 11.3644 11.986L19.8528 5.31887C19.7055 5.05191 19.485 4.84102 19.2329 4.67285L19.3496 4.58137C19.0647 4.32195 18.7004 4.15379 18.2961 4.11035L1.71582 4.11094C1.31262 4.15379 0.947773 4.32254 0.663398 4.58137L0.779297 4.67172C0.530078 4.83754 0.311641 5.0448 0.164062 5.30828Z" fill="#EDECE6"/>
<path d="M0.160508 5.32242C0.0858594 5.52418 8.65707 11.9961 8.65707 11.9961C9.73012 12.7879 10.2945 12.8004 11.3556 11.9961C11.3556 11.9961 19.9143 5.52941 19.8423 5.33043L19.844 5.32898C19.8432 5.32723 19.8417 5.32609 19.8405 5.32449C19.768 5.12664 19.6624 4.94253 19.5283 4.78C19.4716 4.71129 19.4034 4.65379 19.3377 4.59395L19.3409 4.59148C19.3357 4.58684 19.3288 4.58465 19.3235 4.58C19.0452 4.3318 18.6943 4.17102 18.3045 4.12512C18.2984 4.12437 18.2935 4.12121 18.2874 4.12047H18.2639C18.2046 4.1148 18.1482 4.10059 18.0875 4.10059H1.90629C1.10949 4.10059 0.434414 4.60168 0.166328 5.30406C0.163125 5.3093 0.158203 5.31309 0.155273 5.31844L0.160508 5.32242Z" fill="#DCE2E2"/>
<path d="M11.383 6.04059H9.87398C9.81022 6.04059 9.74906 6.06592 9.70398 6.11101C9.65889 6.1561 9.63355 6.21725 9.63355 6.28102V7.12953C9.63355 7.1933 9.65889 7.25445 9.70398 7.29954C9.74906 7.34463 9.81022 7.36996 9.87398 7.36996H11.1011C11.1649 7.36996 11.2261 7.39529 11.2711 7.44038C11.3162 7.48547 11.3416 7.54662 11.3416 7.61039V8.06414C11.3416 8.12791 11.3162 8.18906 11.2711 8.23415C11.2261 8.27924 11.1649 8.30457 11.1011 8.30457H9.87398C9.81022 8.30457 9.74906 8.3299 9.70398 8.37499C9.65889 8.42008 9.63355 8.48123 9.63355 8.545V9.46602C9.63355 9.52978 9.65889 9.59094 9.70398 9.63603C9.74906 9.68111 9.81022 9.70645 9.87398 9.70645H11.4879C11.5517 9.70645 11.6128 9.73178 11.6579 9.77687C11.703 9.82196 11.7283 9.88311 11.7283 9.94687V10.4329C11.7283 10.4966 11.703 10.5578 11.6579 10.6029C11.6128 10.648 11.5517 10.6733 11.4879 10.6733H8.52852C8.46475 10.6733 8.4036 10.648 8.35851 10.6029C8.31342 10.5578 8.28809 10.4966 8.28809 10.4329V5.33027C8.28809 5.26651 8.31342 5.20535 8.35851 5.16026C8.4036 5.11517 8.46475 5.08984 8.52852 5.08984H11.4508C11.5972 5.08984 11.7096 5.21961 11.6887 5.36457L11.6211 5.83441C11.6128 5.89166 11.5842 5.94401 11.5405 5.98187C11.4968 6.01974 11.4409 6.04059 11.383 6.04059Z" fill="#597B91"/>
</svg>
